<?xml version="1.0" encoding="utf-8"?>
<!-- Generator: Adobe Illustrator 22.0.1, SVG Export Plug-In . SVG Version: 6.00 Build 0)  -->
<svg version="1.1" id="Ebene_1" xmlns="http://www.w3.org/2000/svg" xmlns:xlink="http://www.w3.org/1999/xlink" x="0px" y="0px"
	 viewBox="0 0 130 30" style="enable-background:new 0 0 130 30;" xml:space="preserve">
<style type="text/css">
	.st0{fill:#FFFFFF;}
</style>
<g>
	<rect x="1.6" y="2" class="st0" width="26" height="26"/>
	<path d="M25.6,4v22h-22V4H25.6 M29.6,0h-30v30h30V0L29.6,0z"/>
</g>
<g>
	<rect x="-4.4" y="11" class="st0" width="38" height="8"/>
</g>
<g>
	<rect x="10.6" y="-4" class="st0" width="8" height="38"/>
</g>
<g>
	<path d="M43.3,0.1c1.1,0,2.9,0,4.4,0c2.4,0,3.6,1.2,3.6,2.8c0,1.3-0.8,2.1-2,2.3c0,0,0,0.1,0,0.1c1.2,0.1,2.4,1,2.4,2.6
		c0,1.7-1.3,3-3.8,3c-1.2,0-3.5,0-4.7,0C43.3,8.3,43.3,2.8,43.3,0.1z M47.3,4.7c0.9,0,1.6-0.5,1.6-1.4C49,2.5,48.4,2,47.4,2
		c-0.4,0-1.3,0-1.8,0c0,0.7,0,2,0,2.7C46.1,4.7,46.8,4.7,47.3,4.7z M47.5,9.1c1.3,0,1.8-0.5,1.8-1.4c0-0.9-0.7-1.5-1.8-1.5
		c-0.5,0-1.5,0-1.9,0c0,0.7,0,2.2,0,2.9C46.1,9.1,46.9,9.1,47.5,9.1z"/>
	<path d="M53.2,0.1c4.6,0,5.3,0,9.9,0c2.5,0,3.9,1.4,3.9,3.6c0,1.5-0.7,2.6-1.9,3.1c0.8,1.4,1.5,2.8,2.3,4.2c-0.8,0-1.7,0-2.5,0
		c-0.7-1.3-1.4-2.6-2.1-3.8c-3.8,0-3.5,0-7.3,0c0,1.3,0,2.6,0,3.8c-0.8,0-1.5,0-2.3,0C53.2,7.4,53.2,3.7,53.2,0.1z M62.7,5.3
		c1.3,0,2-0.5,2-1.6S64,2,62.7,2c-3.7,0-3.4,0-7.1,0c0,1.1,0,2.2,0,3.3C59.2,5.3,58.9,5.3,62.7,5.3z"/>
	<path d="M68.4,11c0.9-2.7,2.8-8.2,3.8-10.9c0.7,0,2.2,0,3,0C76.1,2.8,78,8.3,78.9,11c-0.6,0-1.9,0-2.5,0c-0.2-0.6-0.6-1.9-0.8-2.5
		c-1,0-3,0-3.9,0c-0.2,0.6-0.6,1.9-0.8,2.5C70.3,11,69.1,11,68.4,11z M75.1,6.7c-0.3-1-1-3.1-1.3-4.1c0,0-0.1,0-0.1,0
		c-0.3,1-1,3.1-1.3,4.1C73,6.7,74.4,6.7,75.1,6.7z"/>
	<path d="M89.4,11c-0.5,0-1.5,0-2,0c-1.2-1.7-3.6-5.1-4.7-6.9c0,0-0.1,0-0.1,0c0,1.7,0,5.1,0,6.9c-0.6,0-1.7,0-2.3,0
		c0-2.7,0-8.2,0-10.9c0.5,0,1.5,0,2,0c1.2,1.7,3.5,5.1,4.7,6.9c0,0,0.1,0,0.1,0c0-1.7,0-5.1,0-6.9c0.6,0,1.7,0,2.3,0
		C89.4,2.8,89.4,8.3,89.4,11z"/>
	<path d="M91.3,11c0-2.7,0-8.2,0-10.9c1,0,2.6,0,3.9,0c3.3,0,5.3,2,5.3,5.4c0,3.4-2,5.5-5.3,5.5C94.2,11,92.2,11,91.3,11z M95.1,9
		c2,0,3.1-1.1,3.1-3.5c0-2.4-1.1-3.5-3.1-3.5c-0.4,0-1.1,0-1.5,0c0,1.7,0,5.2,0,7C94,9,94.6,9,95.1,9z"/>
	<path d="M104.5,11c-0.6,0-1.7,0-2.3,0c0-2.7,0-8.2,0-10.9c0.6,0,1.7,0,2.3,0C104.5,2.8,104.5,8.3,104.5,11z"/>
	<path d="M115.5,11c-0.5,0-1.5,0-2,0c-1.2-1.7-3.6-5.1-4.7-6.9c0,0-0.1,0-0.1,0c0,1.7,0,5.1,0,6.9c-0.6,0-1.7,0-2.3,0
		c0-2.7,0-8.2,0-10.9c0.5,0,1.5,0,2,0c1.2,1.7,3.5,5.1,4.7,6.9c0,0,0.1,0,0.1,0c0-1.7,0-5.1,0-6.9c0.6,0,1.7,0,2.3,0
		C115.5,2.8,115.5,8.3,115.5,11z"/>
	<path d="M129.1,5.1c0,0.5,0,0.9,0,1.4c0,2.9-2,4.6-4.7,4.6c-0.1,0-0.1,0-0.2,0c-0.7,0-1.4,0-2.1,0c-3-0.1-4.9-2.2-4.9-5.6
		c0-3.5,2.2-5.6,5.1-5.6c2.5,0,4.4,1.5,4.6,3.7c-0.8,0-1.6,0-2.4,0c-0.3-1-1.1-1.6-2.3-1.6c-1.6,0-2.8,1.3-2.8,3.5
		c0,2.2,1,3.5,2.6,3.6c0.7,0,1.4,0,2.1,0c0.1,0,0.1,0,0.2,0c1.5,0,2.5-0.9,2.5-2.2c-0.8,0-1.6,0-2.4,0c0-0.6,0-1.2,0-1.8
		C126,5.1,127.6,5.1,129.1,5.1z"/>
	<path d="M46.2,19.1c0.8,1.8,2.3,5.5,3,7.3c0,0,0.1,0,0.1,0c0.8-1.8,2.3-5.5,3-7.3c0.7,0,2.1,0,2.8,0c0,2.7,0,8.2,0,10.9
		c-0.6,0-1.7,0-2.2,0c0-1.8,0-5.3,0-7.1c0,0-0.1,0-0.1,0c-0.7,1.8-2.1,5.3-2.8,7c-0.4,0-1.1,0-1.5,0c-0.7-1.8-2.1-5.3-2.8-7.1
		c0,0-0.1,0-0.1,0c0,1.8,0,5.3,0,7.1c-0.6,0-1.7,0-2.2,0c0-2.7,0-8.2,0-10.9C44,19.1,45.5,19.1,46.2,19.1z"/>
	<path d="M56.6,30c0.9-2.7,2.8-8.2,3.8-10.9c0.7,0,2.2,0,3,0c0.9,2.7,2.8,8.2,3.8,10.9c-0.6,0-1.9,0-2.5,0c-0.2-0.6-0.6-1.9-0.8-2.5
		c-1,0-3,0-3.9,0c-0.2,0.6-0.6,1.9-0.8,2.5C58.4,30,57.2,30,56.6,30z M63.2,25.7c-0.3-1-1-3.1-1.3-4.1c0,0-0.1,0-0.1,0
		c-0.3,1-1,3.1-1.3,4.1C61.2,25.7,62.5,25.7,63.2,25.7z"/>
	<path d="M82.4,26.3c0.8,0,1.5,0,2.3,0c-0.2,2-2,3.9-4.8,3.9c-0.1,0-0.1,0-0.2,0c-2.5,0-5,0-7.5,0c-2.8-0.1-4.9-2.1-4.9-5.6
		s2.1-5.5,4.9-5.6c2.5,0,5,0,7.5,0c0.1,0,0.1,0,0.2,0c2.5,0,4.4,1.5,4.7,4c-0.8,0-1.5,0-2.3,0C82.2,21.7,81.3,21,80,21
		c-0.1,0-0.1,0-0.2,0c-2.5,0-5,0-7.5,0c-1.6,0.1-2.6,1.4-2.6,3.5c0,2.2,1,3.4,2.6,3.5c2.5,0,5,0,7.5,0c0.1,0,0.1,0,0.2,0
		C81.3,28.1,82.2,27.4,82.4,26.3z"/>
	<path d="M86.8,19.1c0.6,0,1.7,0,2.3,0c0,1.1,0,3.4,0,4.5c1.2,0,3.5,0,4.7,0c0-1.1,0-3.4,0-4.5c0.6,0,1.7,0,2.3,0
		c0,2.7,0,8.2,0,10.9c-0.6,0-1.7,0-2.3,0c0-1.1,0-3.4,0-4.5c-1.2,0-3.5,0-4.7,0c0,1.1,0,3.4,0,4.5c-0.6,0-1.7,0-2.3,0
		C86.8,27.3,86.8,21.8,86.8,19.1z"/>
	<path d="M100.3,30c-0.6,0-1.7,0-2.3,0c0-2.7,0-8.2,0-10.9c0.6,0,1.7,0,2.3,0C100.3,21.8,100.3,27.3,100.3,30z"/>
	<path d="M111.4,30c-0.5,0-1.5,0-2,0c-1.2-1.7-3.6-5.1-4.7-6.9c0,0-0.1,0-0.1,0c0,1.7,0,5.1,0,6.9c-0.6,0-1.7,0-2.3,0
		c0-2.7,0-8.2,0-10.9c0.5,0,1.5,0,2,0c1.2,1.7,3.5,5.1,4.7,6.9c0,0,0.1,0,0.1,0c0-1.7,0-5.1,0-6.9c0.6,0,1.7,0,2.3,0
		C111.4,21.8,111.4,27.3,111.4,30z"/>
	<path d="M113.4,19.1c5,0,8.9,0,13.9,0c0,0.6,0,1.3,0,1.9c-4.2,0-7.4,0-11.5,0c0,0.9,0,1.7,0,2.6c4.1,0,7.1,0,11.2,0
		c0,0.6,0,1.3,0,1.9c-4.1,0-7.1,0-11.2,0c0,0.9,0,1.7,0,2.6c4.2,0,7.4,0,11.6,0c0,0.6,0,1.3,0,1.9c-5,0-8.9,0-13.9,0
		C113.4,26.4,113.4,22.7,113.4,19.1z"/>
</g>
</svg>
